# xmcd
#
# Track frame offsets:
#	150
#	60423
#	104876
#	153063
#	165060
#	227764
#	275700
#	317478
#
# Disc length: 4509 seconds
#
# Revision: 1
# Processed by: cddbd v1.5.2PL0 Copyright (c) Steve Scherf et al.
# Submitted via: audiograbber 1.83.01
#
DISCID=5c119b08
DTITLE=Grateful Dead - 78-02-04A Milwaukee Auditorium, Milwaukee WI
DYEAR=1900
DGENRE=
TTITLE0=Dancing In The Streets
TTITLE1=Terrapin Station
TTITLE2=Playing In The Band
TTITLE3=Drums
TTITLE4=Not Fade Away
TTITLE5=Black Peter
TTITLE6=Around and Around
TTITLE7=One More Saturday Night
EXTD=
EXTT0=
EXTT1=
EXTT2=
EXTT3=
EXTT4=
EXTT5=
EXTT6=
EXTT7=
PLAYORDER=
